Coordinates
version=1
nRows=11
nColumns=36
inDegrees=yes

Units are S.I. units (second, meters, Newtons, ...)
If the header above contains a line with 'inDegrees', this indicates whether rotational values are in degrees (yes) or radians (no).

endheader
time	pelvis_tilt	pelvis_list	pelvis_rotation	pelvis_tx	pelvis_ty	pelvis_tz	hip_flexion_r	hip_adduction_r	hip_rotation_r	knee_angle_r	knee_angle_r_beta	ankle_angle_r	subtalar_angle_r	mtp_angle_r	hip_flexion_l	hip_adduction_l	hip_rotation_l	knee_angle_l	knee_angle_l_beta	ankle_angle_l	subtalar_angle_l	mtp_angle_l	lumbar_extension	lumbar_bending	lumbar_rotation	arm_flex_r	arm_add_r	arm_rot_r	elbow_flex_r	pro_sup_r	arm_flex_l	arm_add_l	arm_rot_l	elbow_flex_l	pro_sup_l
      0.00000000	     -1.35918891	      0.82131025	     -2.91523634	      0.67839662	      0.88567370	     -0.26503111	     -3.46297562	     -4.63802027	      9.17200321	      4.10330328	      0.07161615	      2.74717156	    -25.61104470	     -6.64604893	     -3.70306262	     -4.82420639	      3.73593576	      4.22278485	      0.07370150	      9.49565856	    -14.16767594	     -6.64604893	     -1.92640438	     -1.88964229	      1.00025517	     31.31071711	      7.80682423	     58.97349921	    128.10511679	    108.97410276	     40.01631580	     14.29719526	     63.23761270	    121.48174456	    104.37430108
      0.01666670	     -2.93084412	      0.54904992	     -3.58958756	      0.67915161	      0.88262050	     -0.26564945	     -1.96674844	     -4.40468060	      9.62067224	      3.72167117	      0.06495542	      6.83638301	    -22.09770733	     -6.80759326	     -2.31255053	     -5.02697561	      4.14004024	      3.15865141	      0.05512887	      9.59091124	    -13.29533117	     -6.80759326	      0.36337074	     -0.72820645	      0.81376576	     32.05068316	      8.38263338	     60.49780307	    130.00407209	    108.24867432	     41.41227213	     13.96665036	     64.01512492	    124.62265401	    103.38654970
      0.03333330	     -3.40697834	      0.63807372	     -4.00618628	      0.67893543	      0.88327343	     -0.26507764	     -1.57970484	     -4.72882607	      9.24368332	      3.11452898	      0.05435879	      7.06066560	    -21.57864917	     -7.04574915	     -2.26048027	     -5.10222373	      3.44906585	      2.44057356	      0.04259604	      9.99394735	    -11.70373710	     -7.04574915	      0.72919428	     -0.80255949	      1.75312280	     31.29192709	      8.29150469	     61.64788178	    130.80425078	    108.68053435	     41.62426792	     13.98057310	     64.98157345	    126.26619556	    101.81637787
      0.05000000	     -3.21927012	      0.63414012	     -4.32654072	      0.67819131	      0.88313774	     -0.26509170	     -1.89175311	     -4.94099974	      9.26536217	      2.69879509	      0.04710286	      7.54435673	    -20.79886876	     -7.22508356	     -3.09952401	     -5.15699046	      3.07733796	      1.50343977	      0.02623997	     10.07024160	    -10.62086860	     -7.22508356	      0.40633915	     -0.89353833	      2.34920865	     30.84624280	      8.15690175	     62.62514362	    130.75236835	    107.96286866	     42.11357096	     14.27903192	     65.64168336	    126.28553222	    100.30777352
      0.06666670	     -3.23789101	      0.55148731	     -4.60670593	      0.67829189	      0.88289627	     -0.26472896	     -1.98942290	     -4.95582005	      9.24076407	      2.43146714	      0.04243711	      7.72951244	    -20.36472448	     -7.25500570	     -3.43125351	     -5.26778294	      2.89767276	      1.05195595	      0.01836009	     10.19296914	     -9.88907715	     -7.25500570	      0.42450574	     -0.71366778	      2.89559092	     30.42368161	      7.97663881	     63.46757199	    130.40525087	    106.69241293	     42.44420756	     14.54227180	     66.26852607	    125.81895684	     99.13854042
      0.08333330	     -3.12768122	      0.51813965	     -4.86643713	      0.67759901	      0.88100518	     -0.26510919	     -2.04757963	     -4.95391350	      9.37803738	      2.43197764	      0.04244602	      7.95977821	    -20.23858896	     -7.42336722	     -3.73257216	     -5.26501257	      2.68309695	      0.85013785	      0.01483770	     10.39791872	     -9.40590146	     -7.42336722	      0.41941311	     -0.58562316	      3.30718501	     30.25715029	      7.85561247	     63.61298544	    130.05219513	    105.79463419	     42.80069615	     14.79622469	     66.60511080	    125.15995305	     97.18295040
      0.10000000	     -2.98211539	      0.51881913	     -4.94338184	      0.68102035	      0.88166848	     -0.26728956	     -2.31289988	     -5.06606994	      9.31434186	      2.35792290	      0.04115352	      8.02983406	    -20.10203327	     -7.45697417	     -4.00561237	     -5.21006333	      2.61400855	      0.79019891	      0.01379157	     10.40943167	     -9.07376283	     -7.45697417	      0.59281689	     -0.40629233	      3.43886683	     30.09890403	      7.67990311	     63.61526012	    129.86435698	    104.83321257	     42.80068653	     15.21639115	     67.00975117	    124.56969015	     95.86172661
      0.11666670	     -2.97555757	      0.51687032	     -4.94138628	      0.67686048	      0.88087194	     -0.26563659	     -2.30358961	     -5.05738399	      9.31048337	      2.35119073	      0.04103602	      8.03365302	    -20.10434793	     -7.45697671	     -3.99944610	     -5.19862878	      2.61727502	      0.78653767	      0.01372767	     10.40750106	     -9.07119591	     -7.45697671	      0.59943302	     -0.39639767	      3.43700157	     30.10111675	      7.67941891	     63.61356778	    129.86322195	    104.83269930	     42.80304148	     15.22152240	     67.00955161	    124.56680931	     95.86132486
      0.13333330	     -2.68047584	      0.50281880	     -4.96906349	      0.67736761	      0.88330015	     -0.26483153	     -2.63098822	     -5.06077976	      9.16528991	      2.26307702	      0.03949815	      8.20352411	    -19.85831037	     -7.48145632	     -4.28786330	     -5.20153585	      2.53911138	      0.80974016	      0.01413263	     10.15119561	     -8.79779691	     -7.48145632	      0.38843103	     -0.35109754	      3.44517864	     30.52470345	      7.69359957	     63.02149732	    129.15639113	    103.25279697	     43.32997178	     15.27167306	     66.94345926	    123.73122991	     93.14822525
      0.15000000	     -2.55461840	      0.51220603	     -5.02513023	      0.67724268	      0.88285686	     -0.26483943	     -2.80693973	     -5.06889199	      9.03965451	      2.13492153	      0.03726141	      8.13738408	    -19.66032523	     -7.49457710	     -4.40628890	     -5.20311376	      2.44076077	      0.81726048	      0.01426389	     10.09203174	     -8.48093354	     -7.49457710	      0.23749008	     -0.35710503	      3.45708212	     30.72176574	      7.84015409	     62.71472175	    128.64583432	    103.16744292	     43.46180989	     15.32423696	     67.26185566	    123.53374994	     91.47054665
      0.16666670	     -2.40968545	      0.42764146	     -5.12049400	      0.67704739	      0.88523018	     -0.26461034	     -2.97687719	     -4.98038440	      8.98536350	      1.94300702	      0.03391187	      8.08293908	    -19.31650979	     -7.49746023	     -4.60541449	     -5.29224351	      2.28998564	      0.76476686	      0.01334770	      9.98974244	     -8.21531236	     -7.49746023	      0.04548144	     -0.23198909	      3.51592797	     30.82059746	      7.89406923	     62.47228085	    128.15597559	    102.33946378	     43.20538195	     15.15390254	     67.48609794	    123.50976613	     90.81894998
